# File created by Blade
# Date/Time:  Tue Sep 30 19:36:36 2014
#---------------------------------------------------------
:version 1.10
:name HOM
:units
  mass 1.0
  length 1.000000
  angle deg
:documentation
     Acclaim Skeleton File
:root
   axis xyz
   order TX TY TZ RX RY RZ
   position 0.000000 0.000000 0.000000
   orientation 0 0 0
:bonedata
   begin
      id 1
      name Spine_dum
      direction 0.000000 1.000000 0.000000
      length 3.241213
      axis 0.0 0.0 0.0 xyz
   end
   begin
      id 2
      name LeftUpLeg_dum
      direction 1.000000 0.000000 0.000000
      length 3.434019
      axis 0.0 0.0 0.0 xyz
   end
   begin
      id 3
      name RightUpLeg_dum
      direction -1.000000 0.000000 0.000000
      length 3.434019
      axis 0.0 0.0 0.0 xyz
   end
   begin
      id 4
      name Spine
      direction 0.000000 1.000000 0.000000
      length 0.000000
      axis 0.0 0.0 0.0 xyz
      dof rx ry rz
   end
   begin
      id 5
      name Spine_dum1
      direction 0.000000 1.000000 0.000000
      length 18.382958
      axis 0.0 0.0 0.0 xyz
   end
   begin
      id 6
      name Spine_dum2
      direction 0.000000 1.000000 0.000000
      length 12.828261
      axis 0.0 0.0 0.0 xyz
   end
   begin
      id 7
      name Spine_dum3
      direction 0.000000 1.000000 0.000000
      length 12.828261
      axis 0.0 0.0 0.0 xyz
   end
   begin
      id 8
      name Head
      direction 0.000000 1.000000 0.000000
      length 4.527550
      axis 0.0 0.0 0.0 xyz
      dof rx ry rz
   end
   begin
      id 9
      name LeftShoulder
      direction 1.000000 0.000000 0.000000
      length 7.748055
      axis 0.0 0.0 -90.0 xyz
      dof rx ry rz
   end
   begin
      id 10
      name LeftArm
      direction 1.000000 0.000000 0.000000
      length 10.635614
      axis 0.0 0.0 -90.0 xyz
      dof rx ry rz
   end
   begin
      id 11
      name LeftForeArm
      direction 1.000000 0.000000 0.000000
      length 8.346755
      axis 0.0 0.0 -90.0 xyz
      dof ry rz rx
   end
   begin
      id 12
      name LeftHand
      direction 0.000000 0.000000 0.000000
      length 0.000000
      axis 0.0 0.0 -90.0 xyz
      dof rx ry rz
   end
   begin
      id 13
      name LeftHand_dum1
      direction 0.000000 0.000000 0.000000
      length 0.000000
      axis 0.0 0.0 -90.0 xyz
   end
   begin
      id 14
      name LeftHand_dum2
      direction 1.000000 0.000000 0.000000
      length 3.937000
      axis 0.0 0.0 -90.0 xyz
   end
   begin
      id 15
      name LeftHandThumb1
      direction 0.000000 0.000000 1.000000
      length 3.937000
      axis 0.0 0.0 -90.0 xyz
      dof rx rz ry
   end
   begin
      id 16
      name RightShoulder
      direction -1.000000 0.000000 0.000000
      length 7.748055
      axis 0.0 0.0 90.0 xyz
      dof rx ry rz
   end
   begin
      id 17
      name RightArm
      direction -1.000000 0.000000 0.000000
      length 10.635614
      axis 0.0 0.0 90.0 xyz
      dof rx ry rz
   end
   begin
      id 18
      name RightForeArm
      direction -1.000000 0.000000 0.000000
      length 8.346755
      axis 0.0 0.0 90.0 xyz
      dof ry rz rx
   end
   begin
      id 19
      name RightHand
      direction 0.000000 0.000000 0.000000
      length 0.000000
      axis 0.0 0.0 90.0 xyz
      dof rx ry rz
   end
   begin
      id 20
      name RightHand_dum1
      direction 0.000000 0.000000 0.000000
      length 0.000000
      axis 0.0 0.0 90.0 xyz
   end
   begin
      id 21
      name RightHand_dum2
      direction -1.000000 0.000000 0.000000
      length 3.937000
      axis 0.0 0.0 90.0 xyz
   end
   begin
      id 22
      name RightHandThumb1
      direction 0.000000 0.000000 1.000000
      length 3.937000
      axis 0.0 0.0 90.0 xyz
      dof rx rz ry
   end
   begin
      id 23
      name LeftUpLeg
      direction 0.000000 -1.000000 0.000000
      length 15.713025
      axis 0.0 0.0 0.0 xyz
      dof rx ry rz
   end
   begin
      id 24
      name LeftLeg
      direction 0.000000 -1.000000 0.000000
      length 14.435119
      axis 0.0 0.0 0.0 xyz
      dof rx ry rz
   end
   begin
      id 25
      name LeftFoot
      direction 0.000000 -0.258819 0.965926
      length 4.938895
      axis 15.0 0.0 0.0 xyz
      dof rx ry rz
   end
   begin
      id 26
      name LeftToeBase
      direction 0.000000 0.000000 1.000000
      length 2.952750
      axis 0.0 0.0 0.0 xyz
      dof rx ry rz
   end
   begin
      id 27
      name RightUpLeg
      direction 0.000000 -1.000000 0.000000
      length 15.713025
      axis 0.0 0.0 0.0 xyz
      dof rx ry rz
   end
   begin
      id 28
      name RightLeg
      direction 0.000000 -1.000000 0.000000
      length 14.435119
      axis 0.0 0.0 0.0 xyz
      dof rx ry rz
   end
   begin
      id 29
      name RightFoot
      direction 0.000000 -0.258819 0.965926
      length 4.938895
      axis 15.0 0.0 0.0 xyz
      dof rx ry rz
   end
   begin
      id 30
      name RightToeBase
      direction 0.000000 0.000000 1.000000
      length 2.952750
      axis 0.0 0.0 0.0 xyz
      dof rx ry rz
   end
:hierarchy
   begin
      root Spine_dum LeftUpLeg_dum RightUpLeg_dum
      Spine_dum Spine
      LeftUpLeg_dum LeftUpLeg
      RightUpLeg_dum RightUpLeg
      Spine Spine_dum1 Spine_dum2 Spine_dum3
      Spine_dum1 Head
      Spine_dum2 LeftShoulder
      Spine_dum3 RightShoulder
      LeftShoulder LeftArm
      LeftArm LeftForeArm
      LeftForeArm LeftHand
      LeftHand LeftHand_dum1 LeftHand_dum2
      LeftHand_dum1 LeftHandThumb1
      RightShoulder RightArm
      RightArm RightForeArm
      RightForeArm RightHand
      RightHand RightHand_dum1 RightHand_dum2
      RightHand_dum1 RightHandThumb1
      LeftUpLeg LeftLeg
      LeftLeg LeftFoot
      LeftFoot LeftToeBase
      RightUpLeg RightLeg
      RightLeg RightFoot
      RightFoot RightToeBase
   end

# File created by Blade
# Date/Time:  Tue Sep 23 19:22:32 2014
# Frame Rate: 120.000 fps
#------------------------------------------------------
:FULLY-SPECIFIED
:DEGREES
238
root 2.055955 34.078826 1.541529 78.897637 9.549014 -26.177646
Spine -60.869062 -11.276476 35.096994
Head -13.747750 11.272437 30.117457
LeftShoulder -12.866315 41.360813 26.185911
LeftArm 49.811816 -38.271581 -93.682680
LeftForeArm 44.366681 -0.000000 114.712603
LeftHand 24.454896 -0.000000 25.223226
LeftHandThumb1 -26.253704 0.000000 33.147579
RightShoulder -42.384245 -45.697190 12.867415
RightArm 46.831979 51.430234 99.728990
RightForeArm 89.539798 -0.000000 14.751444
RightHand 12.037928 0.000000 28.316897
RightHandThumb1 -24.326973 -0.000000 -32.862282
LeftUpLeg -79.500619 21.166324 8.994169
LeftLeg 4.589568 -0.000000 -0.000000
LeftFoot -6.663665 -2.592432 -1.683935
LeftToeBase 6.668149 -0.000000 -0.000000
RightUpLeg -6.838250 5.314314 -22.312483
RightLeg 98.684703 -0.000000 -0.000000
RightFoot 39.353328 11.578422 0.232708
RightToeBase 28.110446 -0.000000 -0.000000
239
root 2.045734 34.096680 1.517735 79.424168 9.595304 -26.383260
Spine -60.980761 -11.088424 35.021414
Head -13.893873 11.376692 30.349211
LeftShoulder -12.915634 41.282954 26.222120
LeftArm 50.216848 -38.704936 -93.966113
LeftForeArm 43.697664 -0.000000 115.119965
LeftHand 25.044558 -0.000000 24.695147
LeftHandThumb1 -26.253704 0.000000 33.147579
RightShoulder -42.406209 -45.612482 12.628576
RightArm 46.295944 51.163016 98.261391
RightForeArm 90.382828 0.000000 13.773153
RightHand 12.169489 -0.000000 28.466836
RightHandThumb1 -24.326973 -0.000000 -32.862282
LeftUpLeg -80.091675 21.518153 8.728601
LeftLeg 4.436679 -0.000000 -0.000000
LeftFoot -6.539924 -2.826196 -1.874260
LeftToeBase 6.658766 -0.000000 -0.000000
RightUpLeg -6.358376 5.296162 -22.555577
RightLeg 97.765921 -0.000000 -0.000000
RightFoot 39.378394 11.996046 0.389693
RightToeBase 28.019043 -0.000000 -0.000000
240
root 2.032946 34.112419 1.493840 79.911259 9.648687 -26.569058
Spine -61.081790 -10.941622 34.966909
Head -13.994750 11.532130 30.529263
LeftShoulder -12.954975 41.210463 26.228497
LeftArm 50.500363 -39.118866 -94.051829
LeftForeArm 43.597344 -0.000000 115.531395
LeftHand 24.939963 -0.000000 24.765685
LeftHandThumb1 -26.253704 0.000000 33.147579
RightShoulder -42.417101 -45.549384 12.339860
RightArm 45.815691 50.931797 96.922870
RightForeArm 91.076190 0.000000 12.860717
RightHand 12.143649 -0.000000 28.395318
RightHandThumb1 -24.326973 -0.000000 -32.862282
LeftUpLeg -80.638241 21.837519 8.473785
LeftLeg 4.261118 -0.000000 -0.000000
LeftFoot -6.475868 -3.024013 -1.839593
LeftToeBase 7.047639 -0.000000 -0.000000
RightUpLeg -5.814121 5.252153 -22.792152
RightLeg 96.829041 -0.000000 -0.000000
RightFoot 39.432036 12.367072 0.524279
RightToeBase 27.970723 -0.000000 -0.000000
241
root 2.018712 34.128303 1.470499 80.410871 9.728281 -26.771761
Spine -61.195940 -10.786512 34.946494
Head -14.065916 11.644225 30.735306
LeftShoulder -13.022552 41.174245 26.213390
LeftArm 50.939705 -39.608831 -94.303352
LeftForeArm 42.906627 0.000000 115.931522
LeftHand 25.524252 -0.000000 24.301837
LeftHandThumb1 -26.253704 0.000000 33.147579
RightShoulder -42.378670 -45.525451 12.034580
RightArm 45.389579 50.744980 95.622691
RightForeArm 91.796039 -0.000000 11.805957
RightHand 11.807884 0.000000 28.704034
RightHandThumb1 -24.326973 -0.000000 -32.862282
LeftUpLeg -81.157882 22.151822 8.326837
LeftLeg 4.066112 -0.000000 -0.000000
LeftFoot -6.256422 -3.136769 -2.057059
LeftToeBase 6.897469 -0.000000 -0.000000
RightUpLeg -5.288873 5.235460 -22.996250
RightLeg 95.908374 -0.000000 -0.000000
RightFoot 39.442740 12.731822 0.674663
RightToeBase 27.803980 -0.000000 -0.000000
242
root 2.004947 34.146628 1.444636 81.007935 9.753179 -27.018007
Spine -61.363933 -10.519253 34.848188
Head -14.137347 11.746054 30.949441
LeftShoulder -13.038865 41.147949 26.252945
LeftArm 51.353512 -40.099805 -94.514735
LeftForeArm 42.415976 0.000000 116.328789
LeftHand 25.929241 0.000000 24.031731
LeftHandThumb1 -26.253704 0.000000 33.147579
RightShoulder -42.445110 -45.501767 11.804744
RightArm 44.939130 50.484672 94.281371
RightForeArm 92.731890 -0.000000 10.783791
RightHand 11.436731 -0.000000 28.962714
RightHandThumb1 -24.326973 -0.000000 -32.862282
LeftUpLeg -81.814238 22.534898 8.020611
LeftLeg 3.878074 -0.000000 -0.000000
LeftFoot -6.083141 -3.280131 -2.090638
LeftToeBase 6.993560 -0.000000 -0.000000
RightUpLeg -4.891616 5.201028 -23.273817
RightLeg 95.027634 -0.000000 -0.000000
RightFoot 39.457313 13.031481 0.757652
RightToeBase 27.856652 -0.000000 -0.000000
243
root 1.989847 34.161332 1.421170 81.509030 9.806285 -27.230264
Spine -61.485624 -10.360845 34.806029
Head -14.190059 11.874476 31.148715
LeftShoulder -13.058809 41.090545 26.272364
LeftArm 51.730717 -40.614938 -94.747883
LeftForeArm 41.979730 -0.000000 116.781601
LeftHand 26.180577 -0.000000 23.812697
LeftHandThumb1 -26.253704 0.000000 33.147579
RightShoulder -42.381699 -45.413228 11.434570
RightArm 44.413848 50.261709 92.938522
RightForeArm 93.346890 0.000000 9.886322
RightHand 11.238668 -0.000000 28.781544
RightHandThumb1 -24.326973 -0.000000 -32.862282
LeftUpLeg -82.336848 22.853091 7.822843
LeftLeg 3.662690 -0.000000 -0.000000
LeftFoot -5.933559 -3.334997 -2.113014
LeftToeBase 7.012106 -0.000000 -0.000000
RightUpLeg -4.377669 5.172052 -23.532125
RightLeg 94.125604 -0.000000 -0.000000
RightFoot 39.556435 13.268674 0.835608
RightToeBase 27.866166 -0.000000 -0.000000
244
root 1.971318 34.179363 1.394592 82.034308 9.896314 -27.481148
Spine -61.600491 -10.151823 34.766265
Head -14.243111 11.913237 31.375198
LeftShoulder -13.076634 41.080617 26.294936
LeftArm 52.272069 -41.161410 -95.072295
LeftForeArm 41.308980 -0.000000 117.197980
LeftHand 26.751968 -0.000000 23.384328
LeftHandThumb1 -26.253704 0.000000 33.147579
RightShoulder -42.414476 -45.426037 11.205651
RightArm 44.106290 50.088313 91.851114
RightForeArm 93.977921 -0.000000 9.036635
RightHand 11.034588 -0.000000 28.661173
RightHandThumb1 -24.326973 -0.000000 -32.862282
LeftUpLeg -82.894749 23.209943 7.666990
LeftLeg 3.448834 -0.000000 -0.000000
LeftFoot -5.760240 -3.382989 -2.161248
LeftToeBase 7.085545 -0.000000 -0.000000
RightUpLeg -3.906472 5.179271 -23.710234
RightLeg 93.257980 -0.000000 -0.000000
RightFoot 39.560388 13.486526 0.709771
RightToeBase 27.948600 -0.000000 -0.000000
245
root 1.956932 34.189088 1.368830 82.359577 10.003079 -27.594464
Spine -61.581105 -10.180005 34.740902
Head -14.360218 12.048525 31.586999
LeftShoulder -13.138800 41.029290 26.247974
LeftArm 52.812816 -41.716533 -95.458064
LeftForeArm 40.789172 -0.000000 117.670457
LeftHand 27.147684 0.000000 22.999252
LeftHandThumb1 -26.253704 0.000000 33.147579
RightShoulder -42.306978 -45.266694 10.792444
RightArm 43.582338 49.930072 90.602100
RightForeArm 94.399700 0.000000 8.219943
RightHand 10.736159 -0.000000 28.741299
RightHandThumb1 -24.326973 -0.000000 -32.862282
LeftUpLeg -83.284068 23.391753 7.497870
LeftLeg 3.260583 -0.000000 -0.000000
LeftFoot -5.576148 -3.489129 -2.100374
LeftToeBase 7.131795 -0.000000 -0.000000
RightUpLeg -3.131202 5.155561 -23.902500
RightLeg 92.329434 -0.000000 -0.000000
RightFoot 39.681843 13.649615 0.679301
RightToeBase 28.032265 -0.000000 -0.000000
246
root 1.938800 34.208623 1.343878 82.978285 10.015003 -27.868992
Spine -61.783194 -9.896355 34.666513
Head -14.356097 12.116790 31.774842
LeftShoulder -13.195702 41.054985 26.208003
LeftArm 53.235656 -42.264309 -95.557032
LeftForeArm 40.704240 -0.000000 118.102325
LeftHand 26.878893 0.000000 23.255074
LeftHandThumb1 -26.253704 0.000000 33.147579
RightShoulder -42.284067 -45.233812 10.417665
RightArm 43.177436 49.746747 89.546743
RightForeArm 94.695923 0.000000 7.473756
RightHand 10.500824 -0.000000 28.657670
RightHandThumb1 -24.326973 -0.000000 -32.862282
LeftUpLeg -83.900955 23.776544 7.265685
LeftLeg 3.008015 -0.000000 -0.000000
LeftFoot -5.389915 -3.459332 -2.066048
LeftToeBase 7.265284 -0.000000 -0.000000
RightUpLeg -2.785606 5.188193 -24.177888
RightLeg 91.532327 -0.000000 -0.000000
RightFoot 39.724853 13.860599 0.626367
RightToeBase 27.976939 -0.000000 -0.000000
247
root 1.918375 34.224596 1.319725 83.488888 10.075775 -28.099572
Spine -61.913522 -9.709767 34.597053
Head -14.406089 12.182307 31.972316
LeftShoulder -13.224834 41.026476 26.210744
LeftArm 53.775320 -42.851617 -95.831599
LeftForeArm 39.788704 0.000000 118.473325
LeftHand 27.504573 -0.000000 22.853195
LeftHandThumb1 -26.253704 0.000000 33.147579
RightShoulder -42.292577 -45.214551 10.083290
RightArm 42.822482 49.584150 88.577551
RightForeArm 95.176625 0.000000 6.845291
RightHand 10.056866 -0.000000 28.623948
RightHandThumb1 -24.326973 -0.000000 -32.862282
LeftUpLeg -84.462981 24.107377 7.048027
LeftLeg 2.807158 -0.000000 -0.000000
LeftFoot -5.212643 -3.508647 -2.007275
LeftToeBase 7.387846 -0.000000 -0.000000
RightUpLeg -2.288942 5.236615 -24.389472
RightLeg 90.721193 -0.000000 -0.000000
RightFoot 39.772397 13.946624 0.579871
RightToeBase 27.997442 -0.000000 -0.000000
248
root 1.901742 34.235258 1.294202 83.888705 10.138391 -28.268207
Spine -61.954098 -9.633108 34.509491
Head -14.469104 12.242370 32.170462
LeftShoulder -13.311891 41.037011 26.172438
LeftArm 54.431688 -43.335477 -96.183758
LeftForeArm 39.460387 -0.000000 118.858273
LeftHand 27.576479 -0.000000 22.833255
LeftHandThumb1 -26.253704 0.000000 33.147579
RightShoulder -42.290033 -45.153874 9.754539
RightArm 42.643522 49.607126 87.826091
RightForeArm 95.305977 -0.000000 6.192212
RightHand 9.653846 -0.000000 28.653440
RightHandThumb1 -24.326973 -0.000000 -32.862282
LeftUpLeg -84.874588 24.335870 6.951092
LeftLeg 2.617227 -0.000000 -0.000000
LeftFoot -5.069719 -3.441714 -1.939215
LeftToeBase 7.638979 -0.000000 -0.000000
RightUpLeg -1.636794 5.293958 -24.609151
RightLeg 89.883282 -0.000000 -0.000000
RightFoot 39.911781 14.105292 0.517525
RightToeBase 27.985394 -0.000000 -0.000000
249
root 1.882635 34.246262 1.267316 84.276988 10.203760 -28.435658
Spine -61.994889 -9.589764 34.449314
Head -14.480806 12.332542 32.388440
LeftShoulder -13.415825 41.009484 26.154120
LeftArm 55.255560 -43.838681 -96.820892
LeftForeArm 38.492082 -0.000000 119.243037
LeftHand 28.257339 -0.000000 22.064774
LeftHandThumb1 -26.253704 0.000000 33.147579
RightShoulder -42.220614 -45.070809 9.344503
RightArm 42.315760 49.507712 86.935183
RightForeArm 95.511170 0.000000 5.587259
RightHand 9.356201 -0.000000 28.623742
RightHandThumb1 -24.326973 -0.000000 -32.862282
LeftUpLeg -85.251301 24.560739 6.937784
LeftLeg 2.441303 -0.000000 -0.000000
LeftFoot -4.949872 -3.309388 -1.923408
LeftToeBase 7.301165 -0.000000 -0.000000
RightUpLeg -0.967543 5.389086 -24.806003
RightLeg 89.066083 -0.000000 -0.000000
RightFoot 40.132879 14.136165 0.665200
RightToeBase 28.201956 -0.000000 -0.000000
250
root 1.855198 34.265427 1.245333 84.778266 10.206787 -28.836538
Spine -62.079532 -9.278712 34.309495
Head -14.426806 12.375933 32.662766
LeftShoulder -13.457651 40.974774 26.223678
LeftArm 55.927713 -44.375668 -97.274160
LeftForeArm 37.551711 0.000000 119.575223
LeftHand 28.912557 -0.000000 21.338505
LeftHandThumb1 -26.253704 0.000000 33.147579
RightShoulder -42.165413 -45.035743 8.985257
RightArm 41.899363 49.436832 86.015221
RightForeArm 95.696394 -0.000000 5.100144
RightHand 9.054280 -0.000000 28.473619
RightHandThumb1 -24.326973 -0.000000 -32.862282
LeftUpLeg -85.792135 25.082114 6.748457
LeftLeg 2.286560 -0.000000 -0.000000
LeftFoot -4.991403 -3.290834 -1.857490
LeftToeBase 7.682180 -0.000000 -0.000000
RightUpLeg -0.618239 5.630023 -25.040172
RightLeg 88.329507 -0.000000 -0.000000
RightFoot 40.457628 14.085875 0.839362
RightToeBase 28.292074 -0.000000 -0.000000
